<svg xmlns="http://www.w3.org/2000/svg">
    <symbol id="cart" viewBox="0 0 24 24" fill="none" stroke="currentColor" stroke-width="2" stroke-linecap="round" stroke-linejoin="round" class="lucide lucide-shopping-cart">
        <g>
            <circle cx="8" cy="21" r="1"/>
            <circle cx="19" cy="21" r="1"/>
            <path d="M2.05 2.05h2l2.66 12.42a2 2 0 0 0 2 1.58h9.78a2 2 0 0 0 1.95-1.57l1.65-7.43H5.12"/>
        </g>
    </symbol>
    <symbol id="star" viewBox="0 0 24 24" fill="currentColor" stroke="currentColor" stroke-width="2"
            stroke-linecap="round" stroke-linejoin="round" class="lucide lucide-star">
        <g>
            <polygon points="12 2 15.09 8.26 22 9.27 17 14.14 18.18 21.02 12 17.77 5.82 21.02 7 14.14 2 9.27 8.91 8.26 12 2"/>
        </g>
    </symbol>
    <symbol id="review" viewBox="0 0 24 24" fill="currentColor" stroke="currentColor" stroke-width="2"
            stroke-linecap="round" stroke-linejoin="round"
            class="lucide lucide-message-circle">>
        <g>
            <path d="m3 21 1.9-5.7a8.5 8.5 0 1 1 3.8 3.8z"/>
        </g>
    </symbol>
    <symbol id="bookmark" viewBox="0 0 24 24" fill="none" stroke="currentColor" stroke-width="2"
            stroke-linecap="round" stroke-linejoin="round"
            class="lucide lucide-bookmark">
        <g>
            <path d="m19 21-7-4-7 4V5a2 2 0 0 1 2-2h10a2 2 0 0 1 2 2v16z"/>
        </g>
    </symbol>
    <symbol id="bookmark-fill" viewBox="0 0 24 24" fill="currentColor" stroke="currentColor" stroke-width="2"
            stroke-linecap="round" stroke-linejoin="round"
            class="lucide lucide-bookmark">
        <g>
            <path d="m19 21-7-4-7 4V5a2 2 0 0 1 2-2h10a2 2 0 0 1 2 2v16z"/>
        </g>
    </symbol>
    <symbol id="arrow-down" viewBox="0 0 24 24"
            fill="none" stroke="currentColor" stroke-width="2"
            stroke-linecap="round" stroke-linejoin="round"
            class="lucide lucide-chevron-down">
        <g>
            <polyline points="6 9 12 15 18 9"/>
        </g>
    </symbol>
    <symbol id="search" viewBox="0 0 24 24"
            fill="none" stroke="currentColor" stroke-width="2"
            stroke-linecap="round" stroke-linejoin="round"
            class="lucide lucide-search">
        <g>
            <circle cx="11" cy="11" r="8"/>
            <line x1="21" x2="16.65" y1="21" y2="16.65"/>
        </g>
    </symbol>
    <symbol id="clear" viewBox="0 0 24 24"
            fill="none" stroke="currentColor" stroke-width="2"
            stroke-linecap="round" stroke-linejoin="round"
            class="lucide lucide-x">
        <g>
            <line x1="18" x2="6" y1="6" y2="18"/>
            <line x1="6" x2="18" y1="6" y2="18"/>
        </g>
    </symbol>
    <symbol id="menu" viewBox="0 0 24 24"
            fill="none" stroke="currentColor" stroke-width="2"
            stroke-linecap="round" stroke-linejoin="round"
            class="lucide lucide-more-vertical">
        <g>
            <circle cx="12" cy="12" r="1"/>
            <circle cx="12" cy="5" r="1"/>
            <circle cx="12" cy="19" r="1"/>
        </g>
    </symbol>
    <symbol id="user" viewBox="0 0 24 24" fill="none"
            stroke="currentColor" stroke-width="2"
            stroke-linecap="round" stroke-linejoin="round"
            class="lucide lucide-user">
        <g>
            <path d="M19 21v-2a4 4 0 0 0-4-4H9a4 4 0 0 0-4 4v2"/>
            <circle cx="12" cy="7" r="4"/>
        </g>
    </symbol>
    <symbol id="bar-chart" viewBox="0 0 24 24" fill="none"
            stroke="currentColor" stroke-width="2"
            stroke-linecap="round" stroke-linejoin="round"
            class="lucide lucide-bar-chart-2">
        <g>
            <line x1="18" x2="18" y1="20" y2="10"/>
            <line x1="12" x2="12" y1="20" y2="4"/>
            <line x1="6" x2="6" y1="20" y2="14"/>
        </g>
    </symbol>
    <symbol id="arrow-desc-sort" viewBox="0 0 24 24" fill="none"
            stroke="currentColor" stroke-width="2" stroke-linecap="round" stroke-linejoin="round"
            class="lucide lucide-arrow-down-wide-narrow">
        <g>
            <path d="m3 16 4 4 4-4"/>
            <path d="M7 20V4"/>
            <path d="M11 4h10"/>
            <path d="M11 8h7"/>
            <path d="M11 12h4"/>
        </g>
    </symbol>
    <symbol id="arrow-asc-sort" viewBox="0 0 24 24" fill="none"
            stroke="currentColor" stroke-width="2"
            stroke-linecap="round" stroke-linejoin="round"
            class="lucide lucide-arrow-down-narrow-wide">
        <g>
            <path d="m3 16 4 4 4-4"/>
            <path d="M7 20V4"/>
            <path d="M11 4h4"/>
            <path d="M11 8h7"/>
            <path d="M11 12h10"/>
        </g>
    </symbol>
    <symbol id="list" viewBox="0 0 24 24" fill="none"
            stroke="currentColor" stroke-width="2"
            stroke-linecap="round" stroke-linejoin="round"
            class="lucide lucide-list">
        <g>
            <line x1="8" x2="21" y1="6" y2="6"/>
            <line x1="8" x2="21" y1="12" y2="12"/>
            <line x1="8" x2="21" y1="18" y2="18"/>
            <line x1="3" x2="3.01" y1="6" y2="6"/>
            <line x1="3" x2="3.01" y1="12" y2="12"/>
            <line x1="3" x2="3.01" y1="18" y2="18"/>
        </g>
    </symbol>
    <symbol id="grid" viewBox="0 0 24 24" fill="none"
            stroke="currentColor" stroke-width="2"
            stroke-linecap="round" stroke-linejoin="round"
            class="lucide lucide-layout-grid">
        <g>
            <rect width="7" height="7" x="3" y="3" rx="1"/>
            <rect width="7" height="7" x="14" y="3" rx="1"/>
            <rect width="7" height="7" x="14" y="14" rx="1"/>
            <rect width="7" height="7" x="3" y="14" rx="1"/>
        </g>
    </symbol>
    <symbol id="youtube" viewBox="0 0 32 32"
            fill="currentColor" stroke="none">
        <g transform="translate(0.000000,32.000000) scale(0.100000,-0.100000)">
            <path d="M78 273 c-63 -5 -78 -27 -78 -114 0 -106 8 -111 160 -111 153 0 160
5 160 112 0 95 -12 107 -115 113 -44 2 -101 2 -127 0z m213 -35 c12 -18 11
-139 -1 -158 -14 -22 -246 -22 -260 0 -11 18 -13 140 -2 157 11 17 55 22 161
18 64 -2 97 -8 102 -17z"/>
            <path d="M120 160 l0 -61 50 28 c27 15 50 30 50 33 0 3 -23 18 -50 33 l-50 28
0 -61z m60 -1 c0 -6 -25 -19 -36 -19 -2 0 -4 11 -4 25 0 23 2 24 20 13 11 -7
20 -16 20 -19z"/>
        </g>
    </symbol>
    <symbol id="telegram" fill="currentColor" stroke="none">
        <g transform="translate(0.000000,32.000000) scale(0.100000,-0.100000)">
            <path d="M153 237 c-84 -34 -153 -67 -153 -72 0 -6 20 -16 45 -23 42 -11 45
-15 56 -57 12 -46 27 -56 49 -30 17 21 28 19 67 -11 19 -15 38 -22 42 -18 13
15 62 257 53 265 -4 4 -76 -20 -159 -54z m122 -73 c-13 -58 -25 -107 -28 -110
-2 -2 -22 9 -45 26 -44 32 -74 41 -53 16 8 -10 8 -16 -3 -25 -16 -14 -21 -8
-30 34 -6 28 -3 32 61 69 37 22 62 41 55 44 -6 2 -39 -13 -72 -33 -48 -29 -66
-35 -91 -30 -17 4 -28 10 -24 13 8 8 227 100 241 101 8 1 4 -34 -11 -105z"/>
        </g>
    </symbol>
    <symbol id="vk" fill="currentColor" stroke="none">
        <g transform="translate(0.000000,32.000000) scale(0.100000,-0.100000)">
            <path d="M11 223 c16 -43 55 -106 77 -126 11 -11 37 -23 57 -27 32 -7 38 -6
42 11 6 23 11 24 34 3 20 -18 99 -32 99 -17 0 6 -11 27 -25 47 -25 37 -25 38
-6 64 10 15 22 37 25 50 7 20 4 22 -33 22 -37 0 -42 -3 -55 -34 -21 -51 -36
-54 -36 -7 l0 41 -45 0 c-41 0 -61 -13 -34 -22 6 -2 9 -17 7 -33 l-5 -30 -18
43 c-17 39 -21 42 -56 42 -38 0 -38 0 -28 -27z m161 -31 c4 -53 31 -54 60 -3
13 23 31 41 41 41 22 0 22 -3 -5 -50 l-23 -39 23 -23 c12 -14 22 -27 22 -31 0
-15 -38 -6 -55 13 -23 25 -55 26 -62 1 -3 -13 -11 -17 -26 -13 -39 10 -64 32
-91 81 -31 58 -31 61 -8 61 10 0 23 -15 34 -41 23 -55 52 -51 56 8 4 53 29 49
34 -5z"/>
        </g>
    </symbol>
    <symbol id="delete" width="24" height="24" viewBox="0 0 24 24"
            fill="none" stroke="currentColor" stroke-width="2"
            stroke-linecap="round" stroke-linejoin="round"
            class="lucide lucide-trash-2">
        <g>
            <path d="M3 6h18"/>
            <path d="M19 6v14c0 1-1 2-2 2H7c-1 0-2-1-2-2V6"/>
            <path d="M8 6V4c0-1 1-2 2-2h4c1 0 2 1 2 2v2"/>
            <line x1="10" x2="10" y1="11" y2="17"/>
            <line x1="14" x2="14" y1="11" y2="17"/>
        </g>
    </symbol>
</svg>