<svg xmlns="http://www.w3.org/2000/svg">
    <symbol id="basket" viewBox="0 0 24 24" fill="none" stroke="currentColor" stroke-width="2" stroke-linecap="round" stroke-linejoin="round" class="lucide lucide-shopping-cart">
        <g>
            <circle cx="8" cy="21" r="1"/>
            <circle cx="19" cy="21" r="1"/>
            <path d="M2.05 2.05h2l2.66 12.42a2 2 0 0 0 2 1.58h9.78a2 2 0 0 0 1.95-1.57l1.65-7.43H5.12"/>
        </g>
    </symbol>
    <symbol id="star" viewBox="0 0 24 24" fill="currentColor" stroke="currentColor" stroke-width="2"
            stroke-linecap="round" stroke-linejoin="round" class="lucide lucide-star">
        <g>
            <polygon points="12 2 15.09 8.26 22 9.27 17 14.14 18.18 21.02 12 17.77 5.82 21.02 7 14.14 2 9.27 8.91 8.26 12 2"/>
        </g>
    </symbol>
    <symbol id="review" viewBox="0 0 24 24" fill="currentColor" stroke="currentColor" stroke-width="2"
            stroke-linecap="round" stroke-linejoin="round"
            class="lucide lucide-message-circle">>
        <g>
            <path d="m3 21 1.9-5.7a8.5 8.5 0 1 1 3.8 3.8z"/>
        </g>
    </symbol>
    <symbol id="bookmark" viewBox="0 0 24 24" fill="none" stroke="currentColor" stroke-width="2"
            stroke-linecap="round" stroke-linejoin="round"
            class="lucide lucide-bookmark">
        <g>
            <path d="m19 21-7-4-7 4V5a2 2 0 0 1 2-2h10a2 2 0 0 1 2 2v16z"/>
        </g>
    </symbol>
    <symbol id="bookmark-fill" viewBox="0 0 24 24" fill="currentColor" stroke="currentColor" stroke-width="2"
            stroke-linecap="round" stroke-linejoin="round"
            class="lucide lucide-bookmark">
        <g>
            <path d="m19 21-7-4-7 4V5a2 2 0 0 1 2-2h10a2 2 0 0 1 2 2v16z"/>
        </g>
    </symbol>
    <symbol id="arrow-down" viewBox="0 0 24 24"
            fill="none" stroke="currentColor" stroke-width="2"
            stroke-linecap="round" stroke-linejoin="round"
            class="lucide lucide-chevron-down">
        <g>
            <polyline points="6 9 12 15 18 9"/>
        </g>
    </symbol>
    <symbol id="search" viewBox="0 0 24 24"
            fill="none" stroke="currentColor" stroke-width="2"
            stroke-linecap="round" stroke-linejoin="round"
            class="lucide lucide-search">
        <g>
            <circle cx="11" cy="11" r="8"/>
            <line x1="21" x2="16.65" y1="21" y2="16.65"/>
        </g>
    </symbol>
    <symbol id="clear" viewBox="0 0 24 24"
            fill="none" stroke="currentColor" stroke-width="2"
            stroke-linecap="round" stroke-linejoin="round"
            class="lucide lucide-x">
        <g>
            <line x1="18" x2="6" y1="6" y2="18"/>
            <line x1="6" x2="18" y1="6" y2="18"/>
        </g>
    </symbol>
    <symbol id="menu" viewBox="0 0 24 24"
            fill="none" stroke="currentColor" stroke-width="2"
            stroke-linecap="round" stroke-linejoin="round"
            class="lucide lucide-more-vertical">
        <g>
            <circle cx="12" cy="12" r="1"/>
            <circle cx="12" cy="5" r="1"/>
            <circle cx="12" cy="19" r="1"/>
        </g>
    </symbol>
    <symbol id="user" viewBox="0 0 24 24" fill="none"
            stroke="currentColor" stroke-width="2"
            stroke-linecap="round" stroke-linejoin="round"
            class="lucide lucide-user">
        <g>
            <path d="M19 21v-2a4 4 0 0 0-4-4H9a4 4 0 0 0-4 4v2"/>
            <circle cx="12" cy="7" r="4"/>
        </g>
    </symbol>
    <symbol id="bar-chart" viewBox="0 0 24 24" fill="none"
            stroke="currentColor" stroke-width="2"
            stroke-linecap="round" stroke-linejoin="round"
            class="lucide lucide-bar-chart-2">
        <g>
            <line x1="18" x2="18" y1="20" y2="10"/>
            <line x1="12" x2="12" y1="20" y2="4"/>
            <line x1="6" x2="6" y1="20" y2="14"/>
        </g>
    </symbol>
    <symbol id="arrow-desc-sort" viewBox="0 0 24 24" fill="none"
            stroke="currentColor" stroke-width="2" stroke-linecap="round" stroke-linejoin="round"
            class="lucide lucide-arrow-down-wide-narrow">
        <g>
            <path d="m3 16 4 4 4-4"/>
            <path d="M7 20V4"/>
            <path d="M11 4h10"/>
            <path d="M11 8h7"/>
            <path d="M11 12h4"/>
        </g>
    </symbol>
    <symbol id="arrow-asc-sort" viewBox="0 0 24 24" fill="none"
            stroke="currentColor" stroke-width="2"
            stroke-linecap="round" stroke-linejoin="round"
            class="lucide lucide-arrow-down-narrow-wide">
        <g>
            <path d="m3 16 4 4 4-4"/>
            <path d="M7 20V4"/>
            <path d="M11 4h4"/>
            <path d="M11 8h7"/>
            <path d="M11 12h10"/>
        </g>
    </symbol>
    <symbol id="list" viewBox="0 0 24 24" fill="none"
            stroke="currentColor" stroke-width="2"
            stroke-linecap="round" stroke-linejoin="round"
            class="lucide lucide-list">
        <g>
            <line x1="8" x2="21" y1="6" y2="6"/>
            <line x1="8" x2="21" y1="12" y2="12"/>
            <line x1="8" x2="21" y1="18" y2="18"/>
            <line x1="3" x2="3.01" y1="6" y2="6"/>
            <line x1="3" x2="3.01" y1="12" y2="12"/>
            <line x1="3" x2="3.01" y1="18" y2="18"/>
        </g>
    </symbol>
    <symbol id="grid" viewBox="0 0 24 24" fill="none"
            stroke="currentColor" stroke-width="2"
            stroke-linecap="round" stroke-linejoin="round"
            class="lucide lucide-layout-grid">
        <g>
            <rect width="7" height="7" x="3" y="3" rx="1"/>
            <rect width="7" height="7" x="14" y="3" rx="1"/>
            <rect width="7" height="7" x="14" y="14" rx="1"/>
            <rect width="7" height="7" x="3" y="14" rx="1"/>
        </g>
    </symbol>
</svg>